# xmcd CD database file
#
# Track frame offsets:
#	150
#	29672
#	47585
#	70151
#	85369
#	116495
#	150145
#	177276
#	193079
#	218998
#	250103
#	280659
#
# Disc length: 4013 seconds
#
# Revision: 0
# Processed by: cddbd v1.5PL3 Copyright (c) Steve Scherf et al.
# Submitted via: CDex 1.51
#
DISCID=a10fab0c
DTITLE=Di Donna - Aphrodite
DYEAR=1999
DGENRE=New Age
TTITLE0=Iberos
TTITLE1=Celtic Love
TTITLE2=Erotango
TTITLE3=My Africa
TTITLE4=Erotic Dreams
TTITLE5=Paris, 6 AM
TTITLE6=Brasileros
TTITLE7=Torre Del Greco
TTITLE8=Midnight Sun
TTITLE9=Taj-Mahal
TTITLE10=Golden Moon
TTITLE11=El Condor Ya Paso
EXTD=YEAR: 1999
EXTT0=
EXTT1=
EXTT2=
EXTT3=
EXTT4=
EXTT5=
EXTT6=
EXTT7=
EXTT8=
EXTT9=
EXTT10=
EXTT11=
PLAYORDER=
